<svg xmlns="http://www.w3.org/2000/svg" viewBox="0 0 5913.95 785.22"><defs><style>.cls-1{fill:#fff;}</style></defs><g id="Layer_2" data-name="Layer 2"><g id="Layer_1-2" data-name="Layer 1"><path class="cls-1" d="M389.73,338.57,266.15,308.11q-48.28-11.49-77.32-31.61t-29-62.66q0-43.11,33-70.42t88.24-27.3q60.36,0,97.43,29.6t38.23,77.89h142q0-67.26-34.49-117.84t-96-78.18Q366.74,0,288,0,208.08,0,146.87,28.17T52,108.07Q18.39,159.81,18.39,229.36q0,83.36,51.16,135.94t144.29,75L340.3,470.79q42,10.33,67.83,31.61T434,565.06q0,48.29-36.79,75.87t-101.75,27.6q-67.26,0-109.22-30.18T142,555.29H0Q6.9,661.64,86.51,723.42t206.65,61.8q85.65,0,150.32-29t100-81.91q35.36-52.89,35.35-123.59,0-84.51-52.31-138.25T389.73,338.57Z"/><polygon class="cls-1" points="1176.68 329.38 842.12 328.23 842.12 14.95 704.16 14.95 704.16 769.7 842.12 769.7 842.12 448.37 1176.68 448.37 1176.68 769.7 1315.21 769.7 1315.21 14.95 1176.68 14.95 1176.68 329.38"/><path class="cls-1" d="M1684.83,14.94,1403.16,769.68H1628q3.23-14.5,7.25-28.88a17.11,17.11,0,0,0-1.7-11.67c-27.48-48.61-52.43-98.33-66.9-152.61-6.12-22.95-10.81-46.16-10.66-70.07,0-3.91.69-7.79,1.2-13.19,16.89,7.25,25.33,21.55,37.15,33.45,4.62-16.5,2.83-31.93-5.52-46.25-4.39-7.52-10.42-14-15.43-21.22-1.28-1.82-2.66-4.71-2.09-6.56q11.73-39.17,24.08-78.16a68.51,68.51,0,0,1,6.45-14.35c6-10.06,14-12,23.25-4.83,10,7.78,19.24,16.56,28.49,25.24,24.15,22.68,44.5,48.61,64.25,75.05,24.56,32.92,49,66,73.53,98.87q24.7,33.07,49.69,66c2.86,3.79,6.09,7.28,9.25,10.8,3.64,4.06,8,4.83,13.52,4.39,47.33-4,94.56-3.76,141.18,6.68,12.35,2.77,24.23,7.88,36.16,12.26a29.24,29.24,0,0,1,8.81,5.64c5.61,4.93,5.43,9.14-1.35,12-12.14,5.16-25,8.71-37,14-20.17,8.86-39.87,18.65-54.85,35.72-11,12.5-10.35,35.87,2,47.59l.09.09H2105L1825.08,14.94Z"/><path class="cls-1" d="M2745.09,384.85q36.52-55.46,36.5-134.23,0-113.25-71.56-174.45T2500.51,14.94H2201V769.68h81.32a137.07,137.07,0,0,0,36.08-24.14,145.75,145.75,0,0,0,27.75-36.44c.84-1.52,1.61-3,2.39-4.59,15.16-30.44,10-48.85-16.35-71.26-12.48-10.6-26.06-19.94-38-31.1-35.18-32.85-47.51-73.44-38.5-120.65a26.88,26.88,0,0,1,2.27-6.92c.69-1.31-2.36-7.4,1.25-10.68,25.28,38.64,73.47,39.51,111.34,49.36,23,6,44.29,15.19,57.48,34.82,9.1,13.55,12.8,30.77,19.72,48.43,48.91-39.78,96.3-21.78,142.94,8.72,23.4,15.28,47.33,29.39,77.38,22.62-4.66,52.64-59.89,86.63-94.63,83.91-23.66-1.85-47.27-4.59-70.9-6.89-48.88-4.78-84.72,23.06-89.58,64.81h373.22L2642.5,465Q2708.56,440.33,2745.09,384.85ZM2602.24,336q-34.47,32.44-101.73,32.47H2339V136.24h161.53q66.69,0,101.46,31.9t34.77,83.65Q2636.74,303.48,2602.24,336Z"/><polygon class="cls-1" points="3361.03 14.95 3052.35 398.93 3052.35 14.95 2913.24 14.95 2913.24 772 3052.35 772 3052.35 611.04 3177.09 456.41 3365.63 769.7 3531.76 769.7 3271.36 339.72 3532.91 14.95 3361.03 14.95"/><path class="cls-1" d="M4380.35,448.15q41.14,52,41.16,119.14,0,60.66-29.79,106.69t-86.11,72q-56.31,26-133.21,26h-326V16h311.92q76.89,0,132.67,24.92t84.47,69.32q28.7,44.42,28.71,100.72,0,66.08-35.2,110.48t-93.68,62.81Q4339.19,396.17,4380.35,448.15ZM3998,327.94h138.63q54.17,0,83.4-24.37t29.25-69.86q0-45.5-29.25-70.4t-83.4-24.91H3998Zm238.82,294.6q30.87-26,30.87-73.66,0-48.72-32.5-76.36t-87.71-27.61H3998V648.53h152.72Q4206,648.53,4236.84,622.54Z"/><path class="cls-1" d="M5189.38,772H5037.76L4694.43,253.2V772H4542.8V14.94h151.63l343.33,519.87V14.94h151.62Z"/><path class="cls-1" d="M5872.79,448.15q41.15,52,41.16,119.14Q5914,628,5884.16,674t-86.11,72q-56.31,26-133.21,26h-326V16h311.92q76.89,0,132.67,24.92t84.48,69.32q28.68,44.42,28.7,100.72,0,66.08-35.2,110.48t-93.67,62.81Q5831.63,396.17,5872.79,448.15ZM5490.47,327.94h138.62q54.16,0,83.4-24.37t29.25-69.86q0-45.5-29.25-70.4t-83.4-24.91H5490.47Zm238.81,294.6q30.87-26,30.87-73.66,0-48.72-32.5-76.36t-87.71-27.61H5490.47V648.53h152.71Q5698.41,648.53,5729.28,622.54Z"/></g></g></svg>